<?xml version="1.0"?>
<!-- Created by MetaPost 2.01 on 2022.08.11:1745 -->
<svg version="1.1" xmlns="http://www.w3.org/2000/svg" xmlns:xlink="http://www.w3.org/1999/xlink" width="179.081818" height="217.683746" viewBox="0 0 179.081818 217.683746">
<!-- Original BoundingBox: -0.250000 -207.512527 178.831818 10.171219 -->
  <defs>
    <g transform="scale(0.009963,0.009963)" id="GLYPHcmss10_35">
      <path style="fill-rule: evenodd;" d="M518.000000 -130.000000L743.000000 -130.000000C757.000000 -130.000000,776.000000 -130.000000,776.000000 -150.000000C776.000000 -170.000000,757.000000 -170.000000,742.000000 -170.000000L530.000000 -170.000000L572.000000 -330.000000L742.000000 -330.000000C757.000000 -330.000000,776.000000 -330.000000,776.000000 -350.000000C776.000000 -370.000000,757.000000 -370.000000,743.000000 -370.000000L584.000000 -370.000000L661.000000 -656.000000C662.000000 -658.000000,665.000000 -670.000000,665.000000 -674.000000C665.000000 -685.000000,656.000000 -694.000000,645.000000 -694.000000C629.000000 -694.000000,626.000000 -681.000000,623.000000 -670.000000L543.000000 -370.000000L355.000000 -370.000000L432.000000 -656.000000C433.000000 -658.000000,436.000000 -670.000000,436.000000 -674.000000C436.000000 -685.000000,427.000000 -694.000000,416.000000 -694.000000C400.000000 -694.000000,397.000000 -681.000000,394.000000 -670.000000L314.000000 -370.000000L89.000000 -370.000000C75.000000 -370.000000,56.000000 -370.000000,56.000000 -350.000000C56.000000 -330.000000,75.000000 -330.000000,90.000000 -330.000000L302.000000 -330.000000L260.000000 -170.000000L90.000000 -170.000000C75.000000 -170.000000,56.000000 -170.000000,56.000000 -150.000000C56.000000 -130.000000,75.000000 -130.000000,89.000000 -130.000000L248.000000 -130.000000L171.000000 156.000000C170.000000 158.000000,167.000000 170.000000,167.000000 174.000000C167.000000 185.000000,176.000000 194.000000,187.000000 194.000000C203.000000 194.000000,206.000000 181.000000,209.000000 170.000000L289.000000 -130.000000L477.000000 -130.000000L400.000000 156.000000C399.000000 158.000000,396.000000 170.000000,396.000000 174.000000C396.000000 185.000000,405.000000 194.000000,416.000000 194.000000C432.000000 194.000000,435.000000 181.000000,438.000000 170.000000M301.000000 -170.000000L343.000000 -330.000000L531.000000 -330.000000L489.000000 -170.000000"></path>
    </g>
    <g transform="scale(0.009963,0.009963)" id="GLYPHcmss10_42">
      <path style="fill-rule: evenodd;" d="M409.000000 -587.000000C425.000000 -596.000000,435.000000 -601.000000,435.000000 -620.000000C435.000000 -644.000000,415.000000 -656.000000,401.000000 -656.000000C390.000000 -656.000000,386.000000 -653.000000,372.000000 -643.000000L276.000000 -576.000000C278.000000 -606.000000,284.000000 -690.000000,284.000000 -715.000000C284.000000 -742.000000,262.000000 -750.000000,250.000000 -750.000000C234.000000 -750.000000,215.000000 -740.000000,215.000000 -715.000000C215.000000 -690.000000,221.000000 -606.000000,223.000000 -576.000000L125.000000 -645.000000C110.000000 -656.000000,103.000000 -656.000000,98.000000 -656.000000C84.000000 -656.000000,64.000000 -644.000000,64.000000 -620.000000C64.000000 -608.000000,69.000000 -599.000000,78.000000 -593.000000C85.000000 -588.000000,118.000000 -572.000000,199.000000 -528.000000L90.000000 -469.000000C74.000000 -460.000000,64.000000 -455.000000,64.000000 -436.000000C64.000000 -412.000000,84.000000 -400.000000,98.000000 -400.000000C109.000000 -400.000000,113.000000 -403.000000,127.000000 -413.000000L223.000000 -480.000000C221.000000 -450.000000,215.000000 -366.000000,215.000000 -341.000000C215.000000 -314.000000,237.000000 -306.000000,249.000000 -306.000000C265.000000 -306.000000,284.000000 -316.000000,284.000000 -341.000000C284.000000 -366.000000,278.000000 -450.000000,276.000000 -480.000000L369.000000 -416.000000C386.000000 -403.000000,390.000000 -400.000000,401.000000 -400.000000C415.000000 -400.000000,435.000000 -412.000000,435.000000 -436.000000C435.000000 -448.000000,430.000000 -457.000000,421.000000 -463.000000C414.000000 -468.000000,381.000000 -484.000000,300.000000 -528.000000"></path>
    </g>
    <g transform="scale(0.009963,0.009963)" id="GLYPHcmss10_48">
      <path style="fill-rule: evenodd;" d="M457.000000 -326.000000C457.000000 -405.000000,453.000000 -498.000000,411.000000 -579.000000C370.000000 -654.000000,301.000000 -678.000000,250.000000 -678.000000C191.000000 -678.000000,121.000000 -651.000000,80.000000 -562.000000C47.000000 -489.000000,42.000000 -406.000000,42.000000 -326.000000C42.000000 -247.000000,46.000000 -174.000000,76.000000 -101.000000C116.000000 -5.000000,192.000000 22.000000,249.000000 22.000000C322.000000 22.000000,385.000000 -19.000000,417.000000 -88.000000C447.000000 -153.000000,457.000000 -219.000000,457.000000 -326.000000M250.000000 -39.000000C198.000000 -39.000000,157.000000 -77.000000,137.000000 -149.000000C121.000000 -206.000000,120.000000 -260.000000,120.000000 -338.000000C120.000000 -401.000000,120.000000 -461.000000,137.000000 -516.000000C143.000000 -535.000000,168.000000 -617.000000,249.000000 -617.000000C327.000000 -617.000000,353.000000 -541.000000,360.000000 -523.000000C379.000000 -467.000000,379.000000 -400.000000,379.000000 -338.000000C379.000000 -272.000000,379.000000 -209.000000,361.000000 -146.000000C335.000000 -55.000000,282.000000 -39.000000,250.000000 -39.000000"></path>
    </g>
    <g transform="scale(0.009963,0.009963)" id="GLYPHcmss10_49">
      <path style="fill-rule: evenodd;" d="M299.000000 -678.000000L279.000000 -678.000000C220.000000 -617.000000,137.000000 -614.000000,89.000000 -612.000000L89.000000 -554.000000C122.000000 -555.000000,170.000000 -557.000000,220.000000 -578.000000L220.000000 -58.000000L95.000000 -58.000000L95.000000 -0.000000L424.000000 -0.000000L424.000000 -58.000000L299.000000 -58.000000"></path>
    </g>
    <g transform="scale(0.009963,0.009963)" id="GLYPHcmss10_50">
      <path style="fill-rule: evenodd;" d="M174.000000 -188.000000L50.000000 -64.000000L50.000000 -0.000000L449.000000 -0.000000L449.000000 -71.000000L267.000000 -71.000000C255.000000 -71.000000,243.000000 -70.000000,231.000000 -70.000000L122.000000 -70.000000C154.000000 -98.000000,230.000000 -173.000000,261.000000 -202.000000C280.000000 -220.000000,331.000000 -262.000000,350.000000 -280.000000C395.000000 -325.000000,449.000000 -378.000000,449.000000 -463.000000C449.000000 -578.000000,368.000000 -678.000000,236.000000 -678.000000C122.000000 -678.000000,66.000000 -600.000000,42.000000 -514.000000C54.000000 -497.000000,59.000000 -491.000000,61.000000 -488.000000C63.000000 -486.000000,73.000000 -473.000000,83.000000 -459.000000C103.000000 -536.000000,131.000000 -614.000000,222.000000 -614.000000C316.000000 -614.000000,367.000000 -539.000000,367.000000 -461.000000C367.000000 -376.000000,310.000000 -319.000000,251.000000 -259.000000"></path>
    </g>
    <g transform="scale(0.009963,0.009963)" id="GLYPHcmss10_51">
      <path style="fill-rule: evenodd;" d="M92.000000 -514.000000C121.000000 -584.000000,186.000000 -620.000000,247.000000 -620.000000C299.000000 -620.000000,348.000000 -590.000000,348.000000 -526.000000C348.000000 -465.000000,307.000000 -406.000000,246.000000 -392.000000C240.000000 -391.000000,238.000000 -391.000000,167.000000 -385.000000L167.000000 -324.000000L238.000000 -324.000000C346.000000 -324.000000,368.000000 -231.000000,368.000000 -181.000000C368.000000 -103.000000,322.000000 -39.000000,245.000000 -39.000000C176.000000 -39.000000,97.000000 -74.000000,53.000000 -142.000000L42.000000 -82.000000C115.000000 12.000000,207.000000 22.000000,247.000000 22.000000C369.000000 22.000000,457.000000 -75.000000,457.000000 -180.000000C457.000000 -271.000000,387.000000 -333.000000,319.000000 -354.000000C395.000000 -395.000000,430.000000 -463.000000,430.000000 -526.000000C430.000000 -612.000000,347.000000 -678.000000,248.000000 -678.000000C171.000000 -678.000000,98.000000 -638.000000,56.000000 -568.000000"></path>
    </g>
    <g transform="scale(0.009963,0.009963)" id="GLYPHcmss10_52">
      <path style="fill-rule: evenodd;" d="M372.000000 -171.000000L471.000000 -171.000000L471.000000 -232.000000L372.000000 -232.000000L372.000000 -656.000000L281.000000 -656.000000L28.000000 -232.000000L28.000000 -171.000000L293.000000 -171.000000L293.000000 -0.000000L372.000000 -0.000000M106.000000 -232.000000C158.000000 -318.000000,299.000000 -555.000000,299.000000 -612.000000L299.000000 -232.000000"></path>
    </g>
    <g transform="scale(0.009963,0.009963)" id="GLYPHcmss10_53">
      <path style="fill-rule: evenodd;" d="M153.000000 -592.000000L416.000000 -592.000000L416.000000 -656.000000L81.000000 -656.000000L81.000000 -287.000000L147.000000 -287.000000C164.000000 -327.000000,201.000000 -366.000000,259.000000 -366.000000C306.000000 -366.000000,360.000000 -325.000000,360.000000 -205.000000C360.000000 -39.000000,238.000000 -39.000000,229.000000 -39.000000C162.000000 -39.000000,101.000000 -78.000000,72.000000 -132.000000L39.000000 -76.000000C80.000000 -19.000000,149.000000 22.000000,230.000000 22.000000C349.000000 22.000000,449.000000 -77.000000,449.000000 -203.000000C449.000000 -328.000000,363.000000 -427.000000,260.000000 -427.000000C220.000000 -427.000000,182.000000 -412.000000,153.000000 -386.000000"></path>
    </g>
    <g transform="scale(0.009963,0.009963)" id="GLYPHcmss10_54">
      <path style="fill-rule: evenodd;" d="M415.000000 -658.000000C364.000000 -678.000000,323.000000 -678.000000,309.000000 -678.000000C168.000000 -678.000000,42.000000 -537.000000,42.000000 -322.000000C42.000000 -39.000000,166.000000 22.000000,251.000000 22.000000C311.000000 22.000000,354.000000 -1.000000,393.000000 -46.000000C438.000000 -97.000000,457.000000 -143.000000,457.000000 -222.000000C457.000000 -350.000000,391.000000 -462.000000,295.000000 -462.000000C263.000000 -462.000000,187.000000 -454.000000,126.000000 -379.000000C139.000000 -540.000000,218.000000 -620.000000,310.000000 -620.000000C348.000000 -620.000000,380.000000 -613.000000,415.000000 -599.000000M127.000000 -219.000000C127.000000 -233.000000,127.000000 -235.000000,128.000000 -247.000000C128.000000 -321.000000,173.000000 -401.000000,256.000000 -401.000000C304.000000 -401.000000,332.000000 -376.000000,352.000000 -339.000000C373.000000 -302.000000,375.000000 -267.000000,375.000000 -222.000000C375.000000 -188.000000,375.000000 -142.000000,351.000000 -101.000000C334.000000 -73.000000,308.000000 -39.000000,251.000000 -39.000000C145.000000 -39.000000,130.000000 -186.000000,127.000000 -219.000000"></path>
    </g>
    <g transform="scale(0.009963,0.009963)" id="GLYPHcmss10_55">
      <path style="fill-rule: evenodd;" d="M232.000000 -585.000000C244.000000 -585.000000,256.000000 -586.000000,268.000000 -586.000000L389.000000 -586.000000C241.000000 -423.000000,152.000000 -223.000000,152.000000 11.000000L236.000000 11.000000C236.000000 -289.000000,379.000000 -503.000000,457.000000 -591.000000L457.000000 -656.000000L42.000000 -656.000000L42.000000 -585.000000"></path>
    </g>
    <g transform="scale(0.009963,0.009963)" id="GLYPHcmss10_56">
      <path style="fill-rule: evenodd;" d="M320.000000 -355.000000C409.000000 -384.000000,443.000000 -450.000000,443.000000 -503.000000C443.000000 -597.000000,358.000000 -678.000000,250.000000 -678.000000C138.000000 -678.000000,56.000000 -595.000000,56.000000 -503.000000C56.000000 -450.000000,90.000000 -384.000000,179.000000 -355.000000C107.000000 -330.000000,42.000000 -267.000000,42.000000 -180.000000C42.000000 -71.000000,134.000000 22.000000,249.000000 22.000000C368.000000 22.000000,457.000000 -74.000000,457.000000 -180.000000C457.000000 -271.000000,387.000000 -332.000000,320.000000 -355.000000M250.000000 -385.000000C173.000000 -385.000000,126.000000 -434.000000,126.000000 -503.000000C126.000000 -572.000000,175.000000 -620.000000,249.000000 -620.000000C328.000000 -620.000000,373.000000 -568.000000,373.000000 -503.000000C373.000000 -431.000000,322.000000 -385.000000,250.000000 -385.000000M250.000000 -39.000000C181.000000 -39.000000,123.000000 -87.000000,123.000000 -181.000000C123.000000 -286.000000,195.000000 -324.000000,249.000000 -324.000000C307.000000 -324.000000,376.000000 -284.000000,376.000000 -181.000000C376.000000 -84.000000,314.000000 -39.000000,250.000000 -39.000000"></path>
    </g>
    <g transform="scale(0.009963,0.009963)" id="GLYPHcmss10_57">
      <path style="fill-rule: evenodd;" d="M72.000000 -24.000000C106.000000 1.000000,143.000000 22.000000,205.000000 22.000000C336.000000 22.000000,457.000000 -117.000000,457.000000 -335.000000C457.000000 -615.000000,338.000000 -678.000000,253.000000 -678.000000C183.000000 -678.000000,142.000000 -648.000000,107.000000 -611.000000C44.000000 -543.000000,42.000000 -477.000000,42.000000 -434.000000C42.000000 -306.000000,108.000000 -194.000000,204.000000 -194.000000C266.000000 -194.000000,330.000000 -223.000000,373.000000 -277.000000C362.000000 -116.000000,285.000000 -39.000000,206.000000 -39.000000C172.000000 -39.000000,139.000000 -47.000000,103.000000 -77.000000M370.000000 -435.000000C371.000000 -428.000000,371.000000 -418.000000,371.000000 -411.000000C371.000000 -329.000000,322.000000 -255.000000,243.000000 -255.000000C196.000000 -255.000000,168.000000 -278.000000,147.000000 -315.000000C125.000000 -354.000000,124.000000 -391.000000,124.000000 -434.000000C124.000000 -478.000000,125.000000 -519.000000,153.000000 -563.000000C173.000000 -592.000000,201.000000 -620.000000,253.000000 -620.000000C351.000000 -620.000000,368.000000 -484.000000,370.000000 -435.000000"></path>
    </g>
    <g transform="scale(0.009963,0.009963)" id="GLYPHcmss10_65">
      <path style="fill-rule: evenodd;" d="M377.000000 -694.000000L289.000000 -694.000000L28.000000 -0.000000L102.000000 -0.000000L179.000000 -204.000000L470.000000 -204.000000L546.000000 -0.000000L638.000000 -0.000000M448.000000 -260.000000L200.000000 -260.000000L265.000000 -441.000000C286.000000 -500.000000,317.000000 -585.000000,324.000000 -622.000000L325.000000 -622.000000C327.000000 -608.000000,334.000000 -583.000000,357.000000 -517.000000"></path>
    </g>
    <g transform="scale(0.009963,0.009963)" id="GLYPHcmss10_66">
      <path style="fill-rule: evenodd;" d="M97.000000 -694.000000L97.000000 -0.000000L361.000000 -0.000000C505.000000 -0.000000,610.000000 -90.000000,610.000000 -188.000000C610.000000 -275.000000,523.000000 -346.000000,417.000000 -363.000000C508.000000 -386.000000,583.000000 -444.000000,583.000000 -520.000000C583.000000 -612.000000,476.000000 -694.000000,334.000000 -694.000000M180.000000 -391.000000L180.000000 -638.000000L306.000000 -638.000000C417.000000 -638.000000,505.000000 -585.000000,505.000000 -519.000000C505.000000 -459.000000,434.000000 -391.000000,296.000000 -391.000000M180.000000 -56.000000L180.000000 -330.000000L325.000000 -330.000000C431.000000 -330.000000,529.000000 -269.000000,529.000000 -189.000000C529.000000 -114.000000,441.000000 -56.000000,333.000000 -56.000000"></path>
    </g>
    <g transform="scale(0.009963,0.009963)" id="GLYPHcmss10_67">
      <path style="fill-rule: evenodd;" d="M582.000000 -114.000000C523.000000 -75.000000,489.000000 -54.000000,390.000000 -54.000000C246.000000 -54.000000,156.000000 -204.000000,156.000000 -348.000000C156.000000 -484.000000,239.000000 -641.000000,392.000000 -641.000000C463.000000 -641.000000,508.000000 -624.000000,563.000000 -589.000000L577.000000 -671.000000C534.000000 -692.000000,457.000000 -705.000000,393.000000 -705.000000C208.000000 -705.000000,66.000000 -549.000000,66.000000 -339.000000C66.000000 -181.000000,185.000000 11.000000,393.000000 11.000000C485.000000 11.000000,523.000000 -5.000000,588.000000 -45.000000"></path>
    </g>
    <g transform="scale(0.009963,0.009963)" id="GLYPHcmss10_68">
      <path style="fill-rule: evenodd;" d="M96.000000 -694.000000L96.000000 -0.000000L359.000000 -0.000000C529.000000 -0.000000,665.000000 -152.000000,665.000000 -341.000000C665.000000 -535.000000,530.000000 -694.000000,358.000000 -694.000000M182.000000 -56.000000L182.000000 -638.000000L335.000000 -638.000000C475.000000 -638.000000,579.000000 -517.000000,579.000000 -341.000000C579.000000 -171.000000,475.000000 -56.000000,335.000000 -56.000000"></path>
    </g>
    <g transform="scale(0.009963,0.009963)" id="GLYPHcmtt10_49">
      <path style="fill-rule: evenodd;" d="M311.000000 -581.000000C311.000000 -597.000000,311.000000 -622.000000,281.000000 -622.000000C262.000000 -622.000000,256.000000 -610.000000,251.000000 -598.000000C213.000000 -513.000000,161.000000 -502.000000,142.000000 -500.000000C126.000000 -499.000000,105.000000 -497.000000,105.000000 -469.000000C105.000000 -444.000000,123.000000 -439.000000,138.000000 -439.000000C157.000000 -439.000000,198.000000 -445.000000,242.000000 -483.000000L242.000000 -61.000000L151.000000 -61.000000C135.000000 -61.000000,111.000000 -61.000000,111.000000 -30.000000C111.000000 -0.000000,136.000000 -0.000000,151.000000 -0.000000L402.000000 -0.000000C417.000000 -0.000000,442.000000 -0.000000,442.000000 -30.000000C442.000000 -61.000000,418.000000 -61.000000,402.000000 -61.000000L311.000000 -61.000000"></path>
    </g>
    <g transform="scale(0.009963,0.009963)" id="GLYPHcmtt10_50">
      <path style="fill-rule: evenodd;" d="M67.000000 -58.000000C58.000000 -50.000000,52.000000 -45.000000,52.000000 -31.000000C52.000000 -0.000000,77.000000 -0.000000,93.000000 -0.000000L432.000000 -0.000000C465.000000 -0.000000,472.000000 -9.000000,472.000000 -41.000000L472.000000 -67.000000C472.000000 -86.000000,472.000000 -108.000000,438.000000 -108.000000C403.000000 -108.000000,403.000000 -89.000000,403.000000 -61.000000L165.000000 -61.000000C224.000000 -112.000000,320.000000 -187.000000,363.000000 -227.000000C426.000000 -283.000000,472.000000 -347.000000,472.000000 -427.000000C472.000000 -547.000000,371.000000 -622.000000,249.000000 -622.000000C131.000000 -622.000000,52.000000 -540.000000,52.000000 -455.000000C52.000000 -418.000000,80.000000 -407.000000,97.000000 -407.000000C118.000000 -407.000000,141.000000 -424.000000,141.000000 -452.000000C141.000000 -464.000000,136.000000 -477.000000,127.000000 -484.000000C142.000000 -530.000000,189.000000 -561.000000,244.000000 -561.000000C326.000000 -561.000000,403.000000 -515.000000,403.000000 -427.000000C403.000000 -357.000000,354.000000 -299.000000,288.000000 -244.000000"></path>
    </g>
    <g transform="scale(0.009963,0.009963)" id="GLYPHcmtt10_51">
      <path style="fill-rule: evenodd;" d="M367.000000 -334.000000C423.000000 -370.000000,451.000000 -427.000000,451.000000 -481.000000C451.000000 -555.000000,378.000000 -622.000000,263.000000 -622.000000C143.000000 -622.000000,73.000000 -574.000000,73.000000 -505.000000C73.000000 -472.000000,98.000000 -458.000000,118.000000 -458.000000C139.000000 -458.000000,162.000000 -475.000000,162.000000 -503.000000C162.000000 -517.000000,156.000000 -527.000000,153.000000 -530.000000C184.000000 -561.000000,255.000000 -561.000000,264.000000 -561.000000C332.000000 -561.000000,382.000000 -525.000000,382.000000 -480.000000C382.000000 -450.000000,367.000000 -415.000000,340.000000 -393.000000C308.000000 -367.000000,283.000000 -365.000000,247.000000 -363.000000C190.000000 -359.000000,175.000000 -359.000000,175.000000 -330.000000C175.000000 -299.000000,199.000000 -299.000000,215.000000 -299.000000L261.000000 -299.000000C360.000000 -299.000000,411.000000 -232.000000,411.000000 -174.000000C411.000000 -113.000000,355.000000 -50.000000,264.000000 -50.000000C224.000000 -50.000000,147.000000 -61.000000,121.000000 -108.000000C126.000000 -113.000000,133.000000 -119.000000,133.000000 -139.000000C133.000000 -163.000000,114.000000 -183.000000,89.000000 -183.000000C66.000000 -183.000000,44.000000 -168.000000,44.000000 -136.000000C44.000000 -47.000000,141.000000 11.000000,264.000000 11.000000C395.000000 11.000000,480.000000 -81.000000,480.000000 -174.000000C480.000000 -245.000000,433.000000 -304.000000,367.000000 -334.000000"></path>
    </g>
    <g transform="scale(0.009963,0.009963)" id="GLYPHcmtt10_66">
      <path style="fill-rule: evenodd;" d="M160.000000 -550.000000L285.000000 -550.000000C370.000000 -550.000000,392.000000 -488.000000,392.000000 -455.000000C392.000000 -414.000000,360.000000 -348.000000,263.000000 -348.000000L160.000000 -348.000000M353.000000 -320.000000C417.000000 -342.000000,461.000000 -394.000000,461.000000 -456.000000C461.000000 -529.000000,400.000000 -611.000000,289.000000 -611.000000L63.000000 -611.000000C49.000000 -611.000000,23.000000 -611.000000,23.000000 -581.000000C23.000000 -550.000000,48.000000 -550.000000,64.000000 -550.000000L91.000000 -550.000000L91.000000 -61.000000L64.000000 -61.000000C48.000000 -61.000000,23.000000 -61.000000,23.000000 -30.000000C23.000000 -0.000000,49.000000 -0.000000,63.000000 -0.000000L309.000000 -0.000000C422.000000 -0.000000,482.000000 -89.000000,482.000000 -167.000000C482.000000 -236.000000,434.000000 -301.000000,353.000000 -320.000000M287.000000 -61.000000L160.000000 -61.000000L160.000000 -287.000000L298.000000 -287.000000C383.000000 -287.000000,413.000000 -214.000000,413.000000 -169.000000C413.000000 -120.000000,374.000000 -61.000000,287.000000 -61.000000"></path>
    </g>
    <g transform="scale(0.009963,0.009963)" id="GLYPHcmtt10_68">
      <path style="fill-rule: evenodd;" d="M60.000000 -611.000000C44.000000 -611.000000,19.000000 -611.000000,19.000000 -580.000000C19.000000 -550.000000,45.000000 -550.000000,60.000000 -550.000000L82.000000 -550.000000L82.000000 -61.000000L60.000000 -61.000000C44.000000 -61.000000,19.000000 -61.000000,19.000000 -30.000000C19.000000 -0.000000,45.000000 -0.000000,60.000000 -0.000000L266.000000 -0.000000C397.000000 -0.000000,485.000000 -140.000000,485.000000 -301.000000C485.000000 -461.000000,399.000000 -611.000000,266.000000 -611.000000M151.000000 -61.000000L151.000000 -550.000000L247.000000 -550.000000C360.000000 -550.000000,416.000000 -417.000000,416.000000 -301.000000C416.000000 -184.000000,358.000000 -61.000000,247.000000 -61.000000"></path>
    </g>
    <g transform="scale(0.009963,0.009963)" id="GLYPHcmtt10_80">
      <path style="fill-rule: evenodd;" d="M166.000000 -245.000000L291.000000 -245.000000C407.000000 -245.000000,480.000000 -335.000000,480.000000 -428.000000C480.000000 -521.000000,406.000000 -611.000000,291.000000 -611.000000L67.000000 -611.000000C52.000000 -611.000000,26.000000 -611.000000,26.000000 -581.000000C26.000000 -550.000000,52.000000 -550.000000,67.000000 -550.000000L97.000000 -550.000000L97.000000 -61.000000L67.000000 -61.000000C51.000000 -61.000000,26.000000 -61.000000,26.000000 -30.000000C26.000000 -0.000000,52.000000 -0.000000,67.000000 -0.000000L196.000000 -0.000000C211.000000 -0.000000,237.000000 -0.000000,237.000000 -30.000000C237.000000 -61.000000,211.000000 -61.000000,196.000000 -61.000000L166.000000 -61.000000M166.000000 -550.000000L272.000000 -550.000000C368.000000 -550.000000,411.000000 -481.000000,411.000000 -428.000000C411.000000 -375.000000,368.000000 -306.000000,272.000000 -306.000000L166.000000 -306.000000"></path>
    </g>
  </defs>
  <g transform="translate(47.115417 13.265549)" style="fill: rgb(0.000000%,0.000000%,0.000000%);">
    <use xlink:href="#GLYPHcmss10_49"></use>
  </g>
  <path d="M59.527283 10.000000C59.527283 4.520660,55.085403 0.078781,49.606064 0.078781C44.126724 0.078781,39.684845 4.520660,39.684845 10.000000C39.684845 15.479340,44.126724 19.921219,49.606064 19.921219C55.085403 19.921219,59.527283 15.479340,59.527283 10.000000Z" style="stroke:rgb(0.000000%,0.000000%,0.000000%); stroke-width: 0.500000;stroke-linecap: round;stroke-linejoin: round;stroke-miterlimit: 10.000000;fill: none;"></path>
  <g transform="translate(86.800262 13.265549)" style="fill: rgb(0.000000%,0.000000%,0.000000%);">
    <use xlink:href="#GLYPHcmss10_50"></use>
  </g>
  <path d="M99.212128 10.000000C99.212128 4.520660,94.770248 0.078781,89.290909 0.078781C83.811569 0.078781,79.369690 4.520660,79.369690 10.000000C79.369690 15.479340,83.811569 19.921219,89.290909 19.921219C94.770248 19.921219,99.212128 15.479340,99.212128 10.000000Z" style="stroke:rgb(0.000000%,0.000000%,0.000000%); stroke-width: 0.500000;stroke-linecap: round;stroke-linejoin: round;stroke-miterlimit: 10.000000;fill: none;"></path>
  <path d="M59.527267 10.000000L79.369843 10.000000" style="stroke:rgb(0.000000%,0.000000%,0.000000%); stroke-width: 0.500000;stroke-linecap: round;stroke-linejoin: round;stroke-miterlimit: 10.000000;fill: none;"></path>
  <g transform="translate(126.485107 13.265549)" style="fill: rgb(0.000000%,0.000000%,0.000000%);">
    <use xlink:href="#GLYPHcmss10_51"></use>
  </g>
  <path d="M138.896973 10.000000C138.896973 4.520660,134.455093 0.078781,128.975754 0.078781C123.496414 0.078781,119.054535 4.520660,119.054535 10.000000C119.054535 15.479340,123.496414 19.921219,128.975754 19.921219C134.455093 19.921219,138.896973 15.479340,138.896973 10.000000Z" style="stroke:rgb(0.000000%,0.000000%,0.000000%); stroke-width: 0.500000;stroke-linecap: round;stroke-linejoin: round;stroke-miterlimit: 10.000000;fill: none;"></path>
  <path d="M99.212112 10.000000L119.054688 10.000000" style="stroke:rgb(0.000000%,0.000000%,0.000000%); stroke-width: 0.500000;stroke-linecap: round;stroke-linejoin: round;stroke-miterlimit: 10.000000;fill: none;"></path>
  <g transform="translate(165.339691 13.459259)" style="fill: rgb(0.000000%,0.000000%,0.000000%);">
    <use xlink:href="#GLYPHcmss10_65"></use>
  </g>
  <path d="M178.581818 10.000000C178.581818 4.520660,174.139938 0.078781,168.660599 0.078781C163.181259 0.078781,158.739380 4.520660,158.739380 10.000000C158.739380 15.479340,163.181259 19.921219,168.660599 19.921219C174.139938 19.921219,178.581818 15.479340,178.581818 10.000000Z" style="stroke:rgb(0.000000%,0.000000%,0.000000%); stroke-width: 0.500000;stroke-linecap: round;stroke-linejoin: round;stroke-miterlimit: 10.000000;fill: none;"></path>
  <path d="M138.896957 10.000000L158.739532 10.000000" style="stroke:rgb(0.000000%,0.000000%,0.000000%); stroke-width: 0.500000;stroke-linecap: round;stroke-linejoin: round;stroke-miterlimit: 10.000000;fill: none;"></path>
  <path d="M39.684998 10.000000L0.000000 10.000000L0.000000 168.739380L39.684845 168.739380L39.684845 208.424225" style="stroke:rgb(0.000000%,0.000000%,0.000000%); stroke-width: 0.500000;stroke-linecap: round;stroke-linejoin: round;stroke-miterlimit: 10.000000;fill: none;"></path>
  <g transform="translate(31.839340 217.512527)" style="fill: rgb(0.000000%,0.000000%,0.000000%);">
    <use xlink:href="#GLYPHcmtt10_80"></use>
    <use xlink:href="#GLYPHcmtt10_68" x="5.250041"></use>
    <use xlink:href="#GLYPHcmtt10_49" x="10.500081"></use>
  </g>
  <g transform="translate(47.115417 47.989792)" style="fill: rgb(0.000000%,0.000000%,0.000000%);">
    <use xlink:href="#GLYPHcmss10_52"></use>
  </g>
  <path d="M59.527283 44.724243C59.527283 39.244904,55.085403 34.803024,49.606064 34.803024C44.126724 34.803024,39.684845 39.244904,39.684845 44.724243C39.684845 50.203583,44.126724 54.645462,49.606064 54.645462C55.085403 54.645462,59.527283 50.203583,59.527283 44.724243Z" style="stroke:rgb(0.000000%,0.000000%,0.000000%); stroke-width: 0.500000;stroke-linecap: round;stroke-linejoin: round;stroke-miterlimit: 10.000000;fill: none;"></path>
  <g transform="translate(86.800262 47.989792)" style="fill: rgb(0.000000%,0.000000%,0.000000%);">
    <use xlink:href="#GLYPHcmss10_53"></use>
  </g>
  <path d="M99.212128 44.724243C99.212128 39.244904,94.770248 34.803024,89.290909 34.803024C83.811569 34.803024,79.369690 39.244904,79.369690 44.724243C79.369690 50.203583,83.811569 54.645462,89.290909 54.645462C94.770248 54.645462,99.212128 50.203583,99.212128 44.724243Z" style="stroke:rgb(0.000000%,0.000000%,0.000000%); stroke-width: 0.500000;stroke-linecap: round;stroke-linejoin: round;stroke-miterlimit: 10.000000;fill: none;"></path>
  <path d="M59.527267 44.724243L79.369843 44.724243" style="stroke:rgb(0.000000%,0.000000%,0.000000%); stroke-width: 0.500000;stroke-linecap: round;stroke-linejoin: round;stroke-miterlimit: 10.000000;fill: none;"></path>
  <g transform="translate(126.485107 47.989792)" style="fill: rgb(0.000000%,0.000000%,0.000000%);">
    <use xlink:href="#GLYPHcmss10_54"></use>
  </g>
  <path d="M138.896973 44.724243C138.896973 39.244904,134.455093 34.803024,128.975754 34.803024C123.496414 34.803024,119.054535 39.244904,119.054535 44.724243C119.054535 50.203583,123.496414 54.645462,128.975754 54.645462C134.455093 54.645462,138.896973 50.203583,138.896973 44.724243Z" style="stroke:rgb(0.000000%,0.000000%,0.000000%); stroke-width: 0.500000;stroke-linecap: round;stroke-linejoin: round;stroke-miterlimit: 10.000000;fill: none;"></path>
  <path d="M99.212112 44.724243L119.054688 44.724243" style="stroke:rgb(0.000000%,0.000000%,0.000000%); stroke-width: 0.500000;stroke-linecap: round;stroke-linejoin: round;stroke-miterlimit: 10.000000;fill: none;"></path>
  <g transform="translate(165.339691 48.183502)" style="fill: rgb(0.000000%,0.000000%,0.000000%);">
    <use xlink:href="#GLYPHcmss10_66"></use>
  </g>
  <path d="M178.581818 44.724243C178.581818 39.244904,174.139938 34.803024,168.660599 34.803024C163.181259 34.803024,158.739380 39.244904,158.739380 44.724243C158.739380 50.203583,163.181259 54.645462,168.660599 54.645462C174.139938 54.645462,178.581818 50.203583,178.581818 44.724243Z" style="stroke:rgb(0.000000%,0.000000%,0.000000%); stroke-width: 0.500000;stroke-linecap: round;stroke-linejoin: round;stroke-miterlimit: 10.000000;fill: none;"></path>
  <path d="M138.896957 44.724243L158.739532 44.724243" style="stroke:rgb(0.000000%,0.000000%,0.000000%); stroke-width: 0.500000;stroke-linecap: round;stroke-linejoin: round;stroke-miterlimit: 10.000000;fill: none;"></path>
  <path d="M39.684860 44.724243L9.921219 44.724243L9.921219 158.818176L59.527267 158.818176L59.527267 208.424225" style="stroke:rgb(0.000000%,0.000000%,0.000000%); stroke-width: 0.500000;stroke-linecap: round;stroke-linejoin: round;stroke-miterlimit: 10.000000;fill: none;"></path>
  <g transform="translate(51.681763 217.512527)" style="fill: rgb(0.000000%,0.000000%,0.000000%);">
    <use xlink:href="#GLYPHcmtt10_80"></use>
    <use xlink:href="#GLYPHcmtt10_68" x="5.250041"></use>
    <use xlink:href="#GLYPHcmtt10_50" x="10.500081"></use>
  </g>
  <g transform="translate(47.115417 82.714035)" style="fill: rgb(0.000000%,0.000000%,0.000000%);">
    <use xlink:href="#GLYPHcmss10_55"></use>
  </g>
  <path d="M59.527283 79.448486C59.527283 73.969147,55.085403 69.527267,49.606064 69.527267C44.126724 69.527267,39.684845 73.969147,39.684845 79.448486C39.684845 84.927826,44.126724 89.369705,49.606064 89.369705C55.085403 89.369705,59.527283 84.927826,59.527283 79.448486Z" style="stroke:rgb(0.000000%,0.000000%,0.000000%); stroke-width: 0.500000;stroke-linecap: round;stroke-linejoin: round;stroke-miterlimit: 10.000000;fill: none;"></path>
  <g transform="translate(86.800262 82.714035)" style="fill: rgb(0.000000%,0.000000%,0.000000%);">
    <use xlink:href="#GLYPHcmss10_56"></use>
  </g>
  <path d="M99.212128 79.448486C99.212128 73.969147,94.770248 69.527267,89.290909 69.527267C83.811569 69.527267,79.369690 73.969147,79.369690 79.448486C79.369690 84.927826,83.811569 89.369705,89.290909 89.369705C94.770248 89.369705,99.212128 84.927826,99.212128 79.448486Z" style="stroke:rgb(0.000000%,0.000000%,0.000000%); stroke-width: 0.500000;stroke-linecap: round;stroke-linejoin: round;stroke-miterlimit: 10.000000;fill: none;"></path>
  <path d="M59.527267 79.448486L79.369843 79.448486" style="stroke:rgb(0.000000%,0.000000%,0.000000%); stroke-width: 0.500000;stroke-linecap: round;stroke-linejoin: round;stroke-miterlimit: 10.000000;fill: none;"></path>
  <g transform="translate(126.485107 82.714035)" style="fill: rgb(0.000000%,0.000000%,0.000000%);">
    <use xlink:href="#GLYPHcmss10_57"></use>
  </g>
  <path d="M138.896973 79.448486C138.896973 73.969147,134.455093 69.527267,128.975754 69.527267C123.496414 69.527267,119.054535 73.969147,119.054535 79.448486C119.054535 84.927826,123.496414 89.369705,128.975754 89.369705C134.455093 89.369705,138.896973 84.927826,138.896973 79.448486Z" style="stroke:rgb(0.000000%,0.000000%,0.000000%); stroke-width: 0.500000;stroke-linecap: round;stroke-linejoin: round;stroke-miterlimit: 10.000000;fill: none;"></path>
  <path d="M99.212112 79.448486L119.054688 79.448486" style="stroke:rgb(0.000000%,0.000000%,0.000000%); stroke-width: 0.500000;stroke-linecap: round;stroke-linejoin: round;stroke-miterlimit: 10.000000;fill: none;"></path>
  <g transform="translate(165.478088 82.907745)" style="fill: rgb(0.000000%,0.000000%,0.000000%);">
    <use xlink:href="#GLYPHcmss10_67"></use>
  </g>
  <path d="M178.581818 79.448486C178.581818 73.969147,174.139938 69.527267,168.660599 69.527267C163.181259 69.527267,158.739380 73.969147,158.739380 79.448486C158.739380 84.927826,163.181259 89.369705,168.660599 89.369705C174.139938 89.369705,178.581818 84.927826,178.581818 79.448486Z" style="stroke:rgb(0.000000%,0.000000%,0.000000%); stroke-width: 0.500000;stroke-linecap: round;stroke-linejoin: round;stroke-miterlimit: 10.000000;fill: none;"></path>
  <path d="M138.896957 79.448486L158.739532 79.448486" style="stroke:rgb(0.000000%,0.000000%,0.000000%); stroke-width: 0.500000;stroke-linecap: round;stroke-linejoin: round;stroke-miterlimit: 10.000000;fill: none;"></path>
  <path d="M39.684998 79.448486L19.842422 79.448486L19.842422 148.896957L79.369690 148.896957L79.369690 208.424225" style="stroke:rgb(0.000000%,0.000000%,0.000000%); stroke-width: 0.500000;stroke-linecap: round;stroke-linejoin: round;stroke-miterlimit: 10.000000;fill: none;"></path>
  <g transform="translate(71.524185 217.512527)" style="fill: rgb(0.000000%,0.000000%,0.000000%);">
    <use xlink:href="#GLYPHcmtt10_80"></use>
    <use xlink:href="#GLYPHcmtt10_68" x="5.250041"></use>
    <use xlink:href="#GLYPHcmtt10_51" x="10.500081"></use>
  </g>
  <g transform="translate(47.115417 117.908722)" style="fill: rgb(0.000000%,0.000000%,0.000000%);">
    <use xlink:href="#GLYPHcmss10_42"></use>
  </g>
  <path d="M59.527283 114.172714C59.527283 108.693375,55.085403 104.251495,49.606064 104.251495C44.126724 104.251495,39.684845 108.693375,39.684845 114.172714C39.684845 119.652054,44.126724 124.093933,49.606064 124.093933C55.085403 124.093933,59.527283 119.652054,59.527283 114.172714Z" style="stroke:rgb(0.000000%,0.000000%,0.000000%); stroke-width: 0.500000;stroke-linecap: round;stroke-linejoin: round;stroke-miterlimit: 10.000000;fill: none;"></path>
  <g transform="translate(86.800262 117.438263)" style="fill: rgb(0.000000%,0.000000%,0.000000%);">
    <use xlink:href="#GLYPHcmss10_48"></use>
  </g>
  <path d="M99.212128 114.172714C99.212128 108.693375,94.770248 104.251495,89.290909 104.251495C83.811569 104.251495,79.369690 108.693375,79.369690 114.172714C79.369690 119.652054,83.811569 124.093933,89.290909 124.093933C94.770248 124.093933,99.212128 119.652054,99.212128 114.172714Z" style="stroke:rgb(0.000000%,0.000000%,0.000000%); stroke-width: 0.500000;stroke-linecap: round;stroke-linejoin: round;stroke-miterlimit: 10.000000;fill: none;"></path>
  <path d="M59.527267 114.172714L79.369843 114.172714" style="stroke:rgb(0.000000%,0.000000%,0.000000%); stroke-width: 0.500000;stroke-linecap: round;stroke-linejoin: round;stroke-miterlimit: 10.000000;fill: none;"></path>
  <g transform="translate(124.824646 116.663376)" style="fill: rgb(0.000000%,0.000000%,0.000000%);">
    <use xlink:href="#GLYPHcmss10_35"></use>
  </g>
  <path d="M138.896973 114.172714C138.896973 108.693375,134.455093 104.251495,128.975754 104.251495C123.496414 104.251495,119.054535 108.693375,119.054535 114.172714C119.054535 119.652054,123.496414 124.093933,128.975754 124.093933C134.455093 124.093933,138.896973 119.652054,138.896973 114.172714Z" style="stroke:rgb(0.000000%,0.000000%,0.000000%); stroke-width: 0.500000;stroke-linecap: round;stroke-linejoin: round;stroke-miterlimit: 10.000000;fill: none;"></path>
  <path d="M99.212112 114.172714L119.054688 114.172714" style="stroke:rgb(0.000000%,0.000000%,0.000000%); stroke-width: 0.500000;stroke-linecap: round;stroke-linejoin: round;stroke-miterlimit: 10.000000;fill: none;"></path>
  <g transform="translate(165.062943 117.631973)" style="fill: rgb(0.000000%,0.000000%,0.000000%);">
    <use xlink:href="#GLYPHcmss10_68"></use>
  </g>
  <path d="M178.581818 114.172714C178.581818 108.693375,174.139938 104.251495,168.660599 104.251495C163.181259 104.251495,158.739380 108.693375,158.739380 114.172714C158.739380 119.652054,163.181259 124.093933,168.660599 124.093933C174.139938 124.093933,178.581818 119.652054,178.581818 114.172714Z" style="stroke:rgb(0.000000%,0.000000%,0.000000%); stroke-width: 0.500000;stroke-linecap: round;stroke-linejoin: round;stroke-miterlimit: 10.000000;fill: none;"></path>
  <path d="M138.896957 114.172714L158.739532 114.172714" style="stroke:rgb(0.000000%,0.000000%,0.000000%); stroke-width: 0.500000;stroke-linecap: round;stroke-linejoin: round;stroke-miterlimit: 10.000000;fill: none;"></path>
  <path d="M39.684845 114.172714L29.763641 114.172714L29.763641 138.975754L99.212112 138.975754L99.212112 208.424225" style="stroke:rgb(0.000000%,0.000000%,0.000000%); stroke-width: 0.500000;stroke-linecap: round;stroke-linejoin: round;stroke-miterlimit: 10.000000;fill: none;"></path>
  <g transform="translate(91.366608 217.512527)" style="fill: rgb(0.000000%,0.000000%,0.000000%);">
    <use xlink:href="#GLYPHcmtt10_80"></use>
    <use xlink:href="#GLYPHcmtt10_66" x="5.250041"></use>
    <use xlink:href="#GLYPHcmtt10_50" x="10.500081"></use>
  </g>
</svg>
