<?xml version="1.0"?>
<!-- Created by MetaPost 2.01 on 2022.08.11:1743 -->
<svg version="1.1" xmlns="http://www.w3.org/2000/svg" xmlns:xlink="http://www.w3.org/1999/xlink" width="113.885803" height="77.743958" viewBox="0 0 113.885803 77.743958">
<!-- Original BoundingBox: -141.982254 -57.651520 -28.096451 20.092438 -->
  <defs>
    <g transform="scale(0.007970,0.007970)" id="GLYPHcmss8_48">
      <path style="fill-rule: evenodd;" d="M488.000000 -325.000000C488.000000 -373.000000,488.000000 -490.000000,441.000000 -572.000000C390.000000 -662.000000,313.000000 -677.000000,265.000000 -677.000000C220.000000 -677.000000,142.000000 -663.000000,92.000000 -577.000000C44.000000 -497.000000,42.000000 -388.000000,42.000000 -325.000000C42.000000 -251.000000,46.000000 -160.000000,88.000000 -84.000000C132.000000 -3.000000,206.000000 21.000000,265.000000 21.000000C365.000000 21.000000,420.000000 -37.000000,450.000000 -100.000000C485.000000 -171.000000,488.000000 -263.000000,488.000000 -325.000000M265.000000 -45.000000C223.000000 -45.000000,175.000000 -69.000000,150.000000 -141.000000C130.000000 -202.000000,129.000000 -265.000000,129.000000 -338.000000C129.000000 -430.000000,129.000000 -611.000000,265.000000 -611.000000C401.000000 -611.000000,401.000000 -430.000000,401.000000 -338.000000C401.000000 -272.000000,401.000000 -197.000000,377.000000 -133.000000C349.000000 -61.000000,298.000000 -45.000000,265.000000 -45.000000"></path>
    </g>
    <g transform="scale(0.007970,0.007970)" id="GLYPHcmss8_49">
      <path style="fill-rule: evenodd;" d="M321.000000 -677.000000L299.000000 -677.000000C234.000000 -617.000000,152.000000 -613.000000,92.000000 -611.000000L92.000000 -548.000000C131.000000 -549.000000,181.000000 -551.000000,231.000000 -571.000000L231.000000 -63.000000L98.000000 -63.000000L98.000000 -0.000000L454.000000 -0.000000L454.000000 -63.000000L321.000000 -63.000000"></path>
    </g>
    <g transform="scale(0.007970,0.007970)" id="GLYPHcmss8_50">
      <path style="fill-rule: evenodd;" d="M283.000000 -77.000000C271.000000 -77.000000,259.000000 -76.000000,247.000000 -76.000000L133.000000 -76.000000L288.000000 -213.000000C306.000000 -229.000000,355.000000 -266.000000,374.000000 -282.000000C418.000000 -322.000000,477.000000 -374.000000,477.000000 -461.000000C477.000000 -574.000000,393.000000 -677.000000,250.000000 -677.000000C144.000000 -677.000000,78.000000 -620.000000,44.000000 -518.000000L91.000000 -459.000000C114.000000 -543.000000,149.000000 -608.000000,236.000000 -608.000000C320.000000 -608.000000,384.000000 -549.000000,384.000000 -459.000000C384.000000 -376.000000,335.000000 -329.000000,275.000000 -272.000000C255.000000 -252.000000,201.000000 -207.000000,180.000000 -187.000000C151.000000 -161.000000,82.000000 -94.000000,53.000000 -69.000000L53.000000 -0.000000L477.000000 -0.000000L477.000000 -77.000000"></path>
    </g>
    <g transform="scale(0.007970,0.007970)" id="GLYPHcmss8_51">
      <path style="fill-rule: evenodd;" d="M100.000000 -513.000000C141.000000 -593.000000,213.000000 -615.000000,261.000000 -615.000000C320.000000 -615.000000,364.000000 -581.000000,364.000000 -524.000000C364.000000 -471.000000,328.000000 -406.000000,252.000000 -393.000000C247.000000 -392.000000,243.000000 -392.000000,177.000000 -387.000000L177.000000 -321.000000L255.000000 -321.000000C350.000000 -321.000000,385.000000 -246.000000,385.000000 -183.000000C385.000000 -105.000000,337.000000 -45.000000,259.000000 -45.000000C188.000000 -45.000000,107.000000 -79.000000,57.000000 -143.000000L44.000000 -78.000000C102.000000 -13.000000,183.000000 21.000000,261.000000 21.000000C392.000000 21.000000,486.000000 -77.000000,486.000000 -182.000000C486.000000 -264.000000,420.000000 -330.000000,341.000000 -353.000000C417.000000 -392.000000,456.000000 -459.000000,456.000000 -524.000000C456.000000 -609.000000,369.000000 -677.000000,262.000000 -677.000000C174.000000 -677.000000,101.000000 -631.000000,59.000000 -571.000000"></path>
    </g>
    <g transform="scale(0.007970,0.007970)" id="GLYPHcmss8_52">
      <path style="fill-rule: evenodd;" d="M396.000000 -167.000000L500.000000 -167.000000L500.000000 -233.000000L396.000000 -233.000000L396.000000 -656.000000L297.000000 -656.000000L30.000000 -233.000000L30.000000 -167.000000L310.000000 -167.000000L310.000000 -0.000000L396.000000 -0.000000M115.000000 -233.000000C145.000000 -280.000000,317.000000 -547.000000,317.000000 -607.000000L317.000000 -233.000000"></path>
    </g>
    <g transform="scale(0.007970,0.007970)" id="GLYPHcmss8_53">
      <path style="fill-rule: evenodd;" d="M164.000000 -587.000000L441.000000 -587.000000L441.000000 -656.000000L84.000000 -656.000000L84.000000 -282.000000L157.000000 -282.000000C181.000000 -336.000000,228.000000 -360.000000,273.000000 -360.000000C314.000000 -360.000000,376.000000 -332.000000,376.000000 -205.000000C376.000000 -74.000000,293.000000 -45.000000,242.000000 -45.000000C176.000000 -45.000000,112.000000 -80.000000,78.000000 -137.000000L40.000000 -77.000000C89.000000 -16.000000,163.000000 21.000000,242.000000 21.000000C374.000000 21.000000,477.000000 -81.000000,477.000000 -203.000000C477.000000 -327.000000,385.000000 -426.000000,275.000000 -426.000000C232.000000 -426.000000,194.000000 -411.000000,164.000000 -386.000000"></path>
    </g>
    <g transform="scale(0.007970,0.007970)" id="GLYPHcmss8_54">
      <path style="fill-rule: evenodd;" d="M439.000000 -657.000000C385.000000 -677.000000,347.000000 -677.000000,328.000000 -677.000000C176.000000 -677.000000,44.000000 -534.000000,44.000000 -323.000000C44.000000 -52.000000,166.000000 21.000000,267.000000 21.000000C348.000000 21.000000,390.000000 -17.000000,421.000000 -49.000000C485.000000 -117.000000,486.000000 -188.000000,486.000000 -223.000000C486.000000 -354.000000,415.000000 -463.000000,318.000000 -463.000000C220.000000 -463.000000,167.000000 -412.000000,138.000000 -383.000000C151.000000 -520.000000,221.000000 -615.000000,329.000000 -615.000000C349.000000 -615.000000,389.000000 -613.000000,439.000000 -594.000000M139.000000 -220.000000C139.000000 -226.000000,139.000000 -241.000000,140.000000 -246.000000C140.000000 -314.000000,183.000000 -397.000000,272.000000 -397.000000C394.000000 -397.000000,394.000000 -257.000000,394.000000 -223.000000C394.000000 -185.000000,394.000000 -143.000000,367.000000 -101.000000C343.000000 -65.000000,313.000000 -45.000000,267.000000 -45.000000C161.000000 -45.000000,144.000000 -176.000000,139.000000 -220.000000"></path>
    </g>
    <g transform="scale(0.007970,0.007970)" id="GLYPHcmss8_55">
      <path style="fill-rule: evenodd;" d="M247.000000 -579.000000C259.000000 -579.000000,271.000000 -580.000000,283.000000 -580.000000L409.000000 -580.000000C257.000000 -431.000000,160.000000 -222.000000,160.000000 10.000000L254.000000 10.000000C254.000000 -282.000000,396.000000 -492.000000,486.000000 -586.000000L486.000000 -656.000000L44.000000 -656.000000L44.000000 -579.000000"></path>
    </g>
    <g transform="scale(0.007970,0.007970)" id="GLYPHcmss8_56">
      <path style="fill-rule: evenodd;" d="M342.000000 -354.000000C408.000000 -375.000000,471.000000 -428.000000,471.000000 -502.000000C471.000000 -593.000000,384.000000 -677.000000,265.000000 -677.000000C146.000000 -677.000000,59.000000 -593.000000,59.000000 -502.000000C59.000000 -427.000000,124.000000 -374.000000,188.000000 -354.000000C100.000000 -327.000000,44.000000 -259.000000,44.000000 -182.000000C44.000000 -75.000000,139.000000 21.000000,265.000000 21.000000C391.000000 21.000000,486.000000 -75.000000,486.000000 -182.000000C486.000000 -259.000000,429.000000 -327.000000,342.000000 -354.000000M265.000000 -387.000000C194.000000 -387.000000,136.000000 -428.000000,136.000000 -501.000000C136.000000 -565.000000,181.000000 -615.000000,265.000000 -615.000000C348.000000 -615.000000,394.000000 -565.000000,394.000000 -501.000000C394.000000 -430.000000,338.000000 -387.000000,265.000000 -387.000000M265.000000 -45.000000C196.000000 -45.000000,135.000000 -89.000000,135.000000 -183.000000C135.000000 -273.000000,193.000000 -321.000000,265.000000 -321.000000C337.000000 -321.000000,395.000000 -272.000000,395.000000 -183.000000C395.000000 -89.000000,333.000000 -45.000000,265.000000 -45.000000"></path>
    </g>
    <g transform="scale(0.007970,0.007970)" id="GLYPHcmss8_57">
      <path style="fill-rule: evenodd;" d="M77.000000 -25.000000C126.000000 11.000000,171.000000 21.000000,218.000000 21.000000C358.000000 21.000000,486.000000 -120.000000,486.000000 -335.000000C486.000000 -608.000000,365.000000 -677.000000,269.000000 -677.000000C180.000000 -677.000000,139.000000 -635.000000,110.000000 -606.000000C46.000000 -541.000000,44.000000 -472.000000,44.000000 -433.000000C44.000000 -304.000000,114.000000 -193.000000,212.000000 -193.000000C325.000000 -193.000000,387.000000 -268.000000,392.000000 -274.000000C378.000000 -115.000000,300.000000 -45.000000,218.000000 -45.000000C166.000000 -45.000000,134.000000 -64.000000,111.000000 -83.000000M389.000000 -434.000000C390.000000 -428.000000,390.000000 -418.000000,390.000000 -412.000000C390.000000 -338.000000,345.000000 -259.000000,258.000000 -259.000000C220.000000 -259.000000,190.000000 -270.000000,164.000000 -311.000000C138.000000 -350.000000,136.000000 -388.000000,136.000000 -433.000000C136.000000 -472.000000,136.000000 -517.000000,167.000000 -561.000000C188.000000 -591.000000,218.000000 -615.000000,268.000000 -615.000000C365.000000 -615.000000,386.000000 -498.000000,389.000000 -434.000000"></path>
    </g>
    <g transform="scale(0.007970,0.007970)" id="GLYPHcmss8_65">
      <path style="fill-rule: evenodd;" d="M402.000000 -694.000000L305.000000 -694.000000L30.000000 -0.000000L112.000000 -0.000000L190.000000 -198.000000L494.000000 -198.000000L572.000000 -0.000000L677.000000 -0.000000M343.000000 -618.000000L469.000000 -257.000000L215.000000 -257.000000"></path>
    </g>
    <g transform="scale(0.007970,0.007970)" id="GLYPHcmss8_66">
      <path style="fill-rule: evenodd;" d="M100.000000 -694.000000L100.000000 -0.000000L385.000000 -0.000000C533.000000 -0.000000,648.000000 -88.000000,648.000000 -188.000000C648.000000 -276.000000,555.000000 -347.000000,444.000000 -363.000000C548.000000 -388.000000,618.000000 -448.000000,618.000000 -520.000000C618.000000 -612.000000,503.000000 -694.000000,356.000000 -694.000000M194.000000 -394.000000L194.000000 -635.000000L326.000000 -635.000000C438.000000 -635.000000,531.000000 -583.000000,531.000000 -519.000000C531.000000 -452.000000,440.000000 -394.000000,327.000000 -394.000000M194.000000 -59.000000L194.000000 -328.000000L337.000000 -328.000000C463.000000 -328.000000,557.000000 -264.000000,557.000000 -189.000000C557.000000 -115.000000,464.000000 -59.000000,354.000000 -59.000000"></path>
    </g>
    <g transform="scale(0.007970,0.007970)" id="GLYPHcmss8_67">
      <path style="fill-rule: evenodd;" d="M619.000000 -122.000000C549.000000 -79.000000,517.000000 -60.000000,417.000000 -60.000000C262.000000 -60.000000,168.000000 -205.000000,168.000000 -349.000000C168.000000 -497.000000,271.000000 -636.000000,417.000000 -636.000000C483.000000 -636.000000,551.000000 -615.000000,597.000000 -580.000000L613.000000 -671.000000C543.000000 -697.000000,487.000000 -705.000000,414.000000 -705.000000C216.000000 -705.000000,68.000000 -541.000000,68.000000 -348.000000C68.000000 -142.000000,225.000000 10.000000,420.000000 10.000000C518.000000 10.000000,559.000000 -10.000000,625.000000 -46.000000"></path>
    </g>
    <g transform="scale(0.007970,0.007970)" id="GLYPHcmss8_68">
      <path style="fill-rule: evenodd;" d="M98.000000 -694.000000L98.000000 -0.000000L382.000000 -0.000000C562.000000 -0.000000,707.000000 -152.000000,707.000000 -341.000000C707.000000 -537.000000,561.000000 -694.000000,382.000000 -694.000000M196.000000 -59.000000L196.000000 -635.000000L355.000000 -635.000000C492.000000 -635.000000,609.000000 -526.000000,609.000000 -342.000000C609.000000 -156.000000,487.000000 -59.000000,355.000000 -59.000000"></path>
    </g>
    <g transform="scale(0.007970,0.007970)" id="GLYPHcmss8_71">
      <path style="fill-rule: evenodd;" d="M637.000000 -299.000000L413.000000 -299.000000L413.000000 -233.000000L549.000000 -233.000000L549.000000 -80.000000C505.000000 -69.000000,462.000000 -60.000000,417.000000 -60.000000C263.000000 -60.000000,168.000000 -205.000000,168.000000 -348.000000C168.000000 -485.000000,261.000000 -636.000000,412.000000 -636.000000C504.000000 -636.000000,562.000000 -608.000000,612.000000 -566.000000L628.000000 -657.000000C559.000000 -690.000000,498.000000 -706.000000,422.000000 -706.000000C220.000000 -706.000000,68.000000 -548.000000,68.000000 -348.000000C68.000000 -153.000000,219.000000 10.000000,416.000000 10.000000C488.000000 10.000000,573.000000 -6.000000,637.000000 -39.000000"></path>
    </g>
    <g transform="scale(0.007970,0.007970)" id="GLYPHcmss8_73">
      <path style="fill-rule: evenodd;" d="M198.000000 -694.000000L97.000000 -694.000000L97.000000 -0.000000L198.000000 -0.000000"></path>
    </g>
    <g transform="scale(0.007970,0.007970)" id="GLYPHcmss8_75">
      <path style="fill-rule: evenodd;" d="M394.000000 -420.000000L678.000000 -694.000000L576.000000 -694.000000L194.000000 -326.000000L194.000000 -694.000000L100.000000 -694.000000L100.000000 -0.000000L194.000000 -0.000000L194.000000 -228.000000L333.000000 -361.000000L590.000000 -0.000000L693.000000 -0.000000"></path>
    </g>
    <g transform="scale(0.007970,0.007970)" id="GLYPHcmss8_77">
      <path style="fill-rule: evenodd;" d="M557.000000 -347.000000C545.000000 -317.000000,473.000000 -141.000000,463.000000 -99.000000L462.000000 -99.000000C455.000000 -128.000000,409.000000 -243.000000,399.000000 -269.000000L227.000000 -694.000000L105.000000 -694.000000L105.000000 -0.000000L189.000000 -0.000000L189.000000 -614.000000L190.000000 -614.000000C198.000000 -579.000000,250.000000 -447.000000,255.000000 -436.000000L422.000000 -21.000000L501.000000 -21.000000L650.000000 -389.000000C650.000000 -390.000000,719.000000 -560.000000,736.000000 -615.000000L737.000000 -615.000000L737.000000 -0.000000L821.000000 -0.000000L821.000000 -694.000000L698.000000 -694.000000"></path>
    </g>
    <g transform="scale(0.007970,0.007970)" id="GLYPHcmss8_78">
      <path style="fill-rule: evenodd;" d="M236.000000 -694.000000L100.000000 -694.000000L100.000000 -0.000000L184.000000 -0.000000L184.000000 -615.000000L185.000000 -615.000000L513.000000 -0.000000L649.000000 -0.000000L649.000000 -694.000000L565.000000 -694.000000L565.000000 -79.000000L564.000000 -79.000000"></path>
    </g>
    <g transform="scale(0.007970,0.007970)" id="GLYPHcmss8_79">
      <path style="fill-rule: evenodd;" d="M725.000000 -344.000000C725.000000 -551.000000,573.000000 -715.000000,392.000000 -715.000000C211.000000 -715.000000,59.000000 -551.000000,59.000000 -344.000000C59.000000 -137.000000,213.000000 21.000000,392.000000 21.000000C572.000000 21.000000,725.000000 -138.000000,725.000000 -344.000000M392.000000 -50.000000C271.000000 -50.000000,160.000000 -171.000000,160.000000 -360.000000C160.000000 -537.000000,272.000000 -646.000000,392.000000 -646.000000C512.000000 -646.000000,624.000000 -537.000000,624.000000 -360.000000C624.000000 -170.000000,513.000000 -50.000000,392.000000 -50.000000"></path>
    </g>
    <g transform="scale(0.007970,0.007970)" id="GLYPHcmss8_82">
      <path style="fill-rule: evenodd;" d="M449.000000 -324.000000C592.000000 -366.000000,628.000000 -453.000000,628.000000 -507.000000C628.000000 -611.000000,506.000000 -694.000000,361.000000 -694.000000L98.000000 -694.000000L98.000000 -0.000000L196.000000 -0.000000L196.000000 -314.000000L361.000000 -314.000000L556.000000 -0.000000L657.000000 -0.000000M196.000000 -380.000000L196.000000 -635.000000L348.000000 -635.000000C463.000000 -635.000000,537.000000 -581.000000,537.000000 -507.000000C537.000000 -437.000000,468.000000 -380.000000,348.000000 -380.000000"></path>
    </g>
    <g transform="scale(0.007970,0.007970)" id="GLYPHcmss8_83">
      <path style="fill-rule: evenodd;" d="M494.000000 -666.000000C430.000000 -699.000000,373.000000 -715.000000,299.000000 -715.000000C148.000000 -715.000000,59.000000 -613.000000,59.000000 -517.000000C59.000000 -476.000000,72.000000 -428.000000,121.000000 -382.000000C165.000000 -341.000000,211.000000 -331.000000,273.000000 -316.000000C357.000000 -296.000000,380.000000 -291.000000,409.000000 -261.000000C428.000000 -242.000000,444.000000 -214.000000,444.000000 -180.000000C444.000000 -118.000000,388.000000 -54.000000,291.000000 -54.000000C234.000000 -54.000000,142.000000 -71.000000,63.000000 -138.000000L47.000000 -48.000000C97.000000 -19.000000,180.000000 21.000000,292.000000 21.000000C431.000000 21.000000,530.000000 -80.000000,530.000000 -192.000000C530.000000 -273.000000,483.000000 -319.000000,463.000000 -340.000000C421.000000 -381.000000,375.000000 -392.000000,298.000000 -410.000000C237.000000 -424.000000,205.000000 -432.000000,181.000000 -455.000000C168.000000 -468.000000,145.000000 -491.000000,145.000000 -529.000000C145.000000 -585.000000,201.000000 -643.000000,298.000000 -643.000000C374.000000 -643.000000,427.000000 -619.000000,478.000000 -576.000000"></path>
    </g>
    <g transform="scale(0.007970,0.007970)" id="GLYPHcmss8_84">
      <path style="fill-rule: evenodd;" d="M413.000000 -618.000000L507.000000 -618.000000C519.000000 -618.000000,531.000000 -617.000000,543.000000 -617.000000L687.000000 -617.000000L687.000000 -687.000000L38.000000 -687.000000L38.000000 -617.000000L182.000000 -617.000000C194.000000 -617.000000,206.000000 -618.000000,218.000000 -618.000000L312.000000 -618.000000L312.000000 -0.000000L413.000000 -0.000000"></path>
    </g>
    <g transform="scale(0.007970,0.007970)" id="GLYPHcmss8_88">
      <path style="fill-rule: evenodd;" d="M395.000000 -366.000000L648.000000 -694.000000L539.000000 -694.000000L346.000000 -438.000000L149.000000 -694.000000L30.000000 -694.000000L297.000000 -366.000000L15.000000 -0.000000L124.000000 -0.000000L346.000000 -301.000000L573.000000 -0.000000L692.000000 -0.000000"></path>
    </g>
    <g transform="scale(0.007970,0.007970)" id="GLYPHcmss8_99">
      <path style="fill-rule: evenodd;" d="M435.000000 -109.000000C385.000000 -77.000000,331.000000 -59.000000,269.000000 -59.000000C177.000000 -59.000000,123.000000 -133.000000,123.000000 -223.000000C123.000000 -300.000000,163.000000 -390.000000,272.000000 -390.000000C340.000000 -390.000000,372.000000 -376.000000,423.000000 -344.000000L436.000000 -416.000000C376.000000 -446.000000,350.000000 -459.000000,272.000000 -459.000000C122.000000 -459.000000,36.000000 -338.000000,36.000000 -222.000000C36.000000 -100.000000,132.000000 10.000000,268.000000 10.000000C338.000000 10.000000,398.000000 -11.000000,441.000000 -36.000000"></path>
    </g>
    <g transform="scale(0.007970,0.007970)" id="GLYPHcmss8_100">
      <path style="fill-rule: evenodd;" d="M463.000000 -694.000000L379.000000 -694.000000L379.000000 -401.000000C315.000000 -448.000000,250.000000 -454.000000,221.000000 -454.000000C116.000000 -454.000000,36.000000 -349.000000,36.000000 -222.000000C36.000000 -95.000000,115.000000 10.000000,218.000000 10.000000C280.000000 10.000000,338.000000 -18.000000,376.000000 -52.000000L376.000000 -0.000000L463.000000 -0.000000M376.000000 -124.000000C351.000000 -83.000000,313.000000 -56.000000,265.000000 -56.000000C195.000000 -56.000000,123.000000 -105.000000,123.000000 -221.000000C123.000000 -346.000000,208.000000 -388.000000,276.000000 -388.000000C316.000000 -388.000000,350.000000 -371.000000,376.000000 -337.000000"></path>
    </g>
    <g transform="scale(0.007970,0.007970)" id="GLYPHcmss8_105">
      <path style="fill-rule: evenodd;" d="M176.000000 -686.000000L75.000000 -686.000000L75.000000 -585.000000L176.000000 -585.000000M168.000000 -444.000000L84.000000 -444.000000L84.000000 -0.000000L168.000000 -0.000000"></path>
    </g>
    <g transform="scale(0.007970,0.007970)" id="GLYPHcmss8_110">
      <path style="fill-rule: evenodd;" d="M465.000000 -296.000000C465.000000 -374.000000,442.000000 -454.000000,319.000000 -454.000000C262.000000 -454.000000,207.000000 -431.000000,163.000000 -378.000000L163.000000 -451.000000L83.000000 -451.000000L83.000000 -0.000000L170.000000 -0.000000L170.000000 -243.000000C170.000000 -309.000000,198.000000 -388.000000,275.000000 -388.000000C378.000000 -388.000000,378.000000 -318.000000,378.000000 -289.000000L378.000000 -0.000000L465.000000 -0.000000"></path>
    </g>
    <g transform="scale(0.007970,0.007970)" id="GLYPHcmss8_111">
      <path style="fill-rule: evenodd;" d="M500.000000 -219.000000C500.000000 -351.000000,395.000000 -459.000000,265.000000 -459.000000C135.000000 -459.000000,30.000000 -350.000000,30.000000 -219.000000C30.000000 -92.000000,136.000000 10.000000,265.000000 10.000000C395.000000 10.000000,500.000000 -92.000000,500.000000 -219.000000M265.000000 -59.000000C186.000000 -59.000000,117.000000 -117.000000,117.000000 -230.000000C117.000000 -343.000000,191.000000 -393.000000,265.000000 -393.000000C340.000000 -393.000000,413.000000 -341.000000,413.000000 -230.000000C413.000000 -116.000000,342.000000 -59.000000,265.000000 -59.000000"></path>
    </g>
    <g transform="scale(0.007970,0.007970)" id="GLYPHcmss8_114">
      <path style="fill-rule: evenodd;" d="M169.000000 -213.000000C169.000000 -321.000000,259.000000 -379.000000,347.000000 -380.000000L347.000000 -454.000000C263.000000 -453.000000,202.000000 -412.000000,162.000000 -359.000000L162.000000 -451.000000L85.000000 -451.000000L85.000000 -0.000000L169.000000 -0.000000"></path>
    </g>
    <g transform="scale(0.007970,0.007970)" id="GLYPHcmss8_117">
      <path style="fill-rule: evenodd;" d="M465.000000 -444.000000L378.000000 -444.000000L378.000000 -154.000000C378.000000 -74.000000,310.000000 -49.000000,252.000000 -49.000000C178.000000 -49.000000,170.000000 -69.000000,170.000000 -115.000000L170.000000 -444.000000L83.000000 -444.000000L83.000000 -109.000000C83.000000 -20.000000,122.000000 10.000000,192.000000 10.000000C233.000000 10.000000,321.000000 2.000000,381.000000 -46.000000L381.000000 -0.000000L465.000000 -0.000000"></path>
    </g>
  </defs>
  <path d="M55.960556 48.346451C55.960556 47.563690,55.325989 46.929123,54.543228 46.929123C53.760468 46.929123,53.125900 47.563690,53.125900 48.346451C53.125900 49.129211,53.760468 49.763779,54.543228 49.763779C55.325989 49.763779,55.960556 49.129211,55.960556 48.346451Z" style="stroke:rgb(0.000000%,0.000000%,0.000000%); stroke-width: 0.500000;stroke-linecap: round;stroke-linejoin: round;stroke-miterlimit: 10.000000;fill: none;"></path>
  <path d="M61.629837 48.346451C61.629837 47.563690,60.995270 46.929123,60.212509 46.929123C59.429749 46.929123,58.795181 47.563690,58.795181 48.346451C58.795181 49.129211,59.429749 49.763779,60.212509 49.763779C60.995270 49.763779,61.629837 49.129211,61.629837 48.346451Z" style="stroke:rgb(0.000000%,0.000000%,0.000000%); stroke-width: 0.500000;stroke-linecap: round;stroke-linejoin: round;stroke-miterlimit: 10.000000;fill: none;"></path>
  <path d="M67.299118 48.346451C67.299118 47.563690,66.664551 46.929123,65.881790 46.929123C65.099030 46.929123,64.464462 47.563690,64.464462 48.346451C64.464462 49.129211,65.099030 49.763779,65.881790 49.763779C66.664551 49.763779,67.299118 49.129211,67.299118 48.346451Z" style="stroke:rgb(0.000000%,0.000000%,0.000000%); stroke-width: 0.500000;stroke-linecap: round;stroke-linejoin: round;stroke-miterlimit: 10.000000;fill: none;"></path>
  <path d="M72.968399 48.346451C72.968399 47.563690,72.333832 46.929123,71.551071 46.929123C70.768311 46.929123,70.133743 47.563690,70.133743 48.346451C70.133743 49.129211,70.768311 49.763779,71.551071 49.763779C72.333832 49.763779,72.968399 49.129211,72.968399 48.346451Z" style="stroke:rgb(0.000000%,0.000000%,0.000000%); stroke-width: 0.500000;stroke-linecap: round;stroke-linejoin: round;stroke-miterlimit: 10.000000;fill: none;"></path>
  <path d="M55.960556 53.307068C55.960556 52.524307,55.325989 51.889740,54.543228 51.889740C53.760468 51.889740,53.125900 52.524307,53.125900 53.307068C53.125900 54.089828,53.760468 54.724396,54.543228 54.724396C55.325989 54.724396,55.960556 54.089828,55.960556 53.307068Z" style="stroke:rgb(0.000000%,0.000000%,0.000000%); stroke-width: 0.500000;stroke-linecap: round;stroke-linejoin: round;stroke-miterlimit: 10.000000;fill: none;"></path>
  <path d="M61.629837 53.307068C61.629837 52.524307,60.995270 51.889740,60.212509 51.889740C59.429749 51.889740,58.795181 52.524307,58.795181 53.307068C58.795181 54.089828,59.429749 54.724396,60.212509 54.724396C60.995270 54.724396,61.629837 54.089828,61.629837 53.307068Z" style="stroke:rgb(0.000000%,0.000000%,0.000000%); stroke-width: 0.500000;stroke-linecap: round;stroke-linejoin: round;stroke-miterlimit: 10.000000;fill: none;"></path>
  <path d="M67.299118 53.307068C67.299118 52.524307,66.664551 51.889740,65.881790 51.889740C65.099030 51.889740,64.464462 52.524307,64.464462 53.307068C64.464462 54.089828,65.099030 54.724396,65.881790 54.724396C66.664551 54.724396,67.299118 54.089828,67.299118 53.307068Z" style="stroke:rgb(0.000000%,0.000000%,0.000000%); stroke-width: 0.500000;stroke-linecap: round;stroke-linejoin: round;stroke-miterlimit: 10.000000;fill: none;"></path>
  <path d="M72.968399 53.307068C72.968399 52.524307,72.333832 51.889740,71.551071 51.889740C70.768311 51.889740,70.133743 52.524307,70.133743 53.307068C70.133743 54.089828,70.768311 54.724396,71.551071 54.724396C72.333832 54.724396,72.968399 54.089828,72.968399 53.307068Z" style="stroke:rgb(0.000000%,0.000000%,0.000000%); stroke-width: 0.500000;stroke-linecap: round;stroke-linejoin: round;stroke-miterlimit: 10.000000;fill: none;"></path>
  <path d="M55.960556 58.267700C55.960556 57.484940,55.325989 56.850372,54.543228 56.850372C53.760468 56.850372,53.125900 57.484940,53.125900 58.267700C53.125900 59.050461,53.760468 59.685028,54.543228 59.685028C55.325989 59.685028,55.960556 59.050461,55.960556 58.267700Z" style="stroke:rgb(0.000000%,0.000000%,0.000000%); stroke-width: 0.500000;stroke-linecap: round;stroke-linejoin: round;stroke-miterlimit: 10.000000;fill: none;"></path>
  <path d="M61.629837 58.267700C61.629837 57.484940,60.995270 56.850372,60.212509 56.850372C59.429749 56.850372,58.795181 57.484940,58.795181 58.267700C58.795181 59.050461,59.429749 59.685028,60.212509 59.685028C60.995270 59.685028,61.629837 59.050461,61.629837 58.267700Z" style="stroke:rgb(0.000000%,0.000000%,0.000000%); stroke-width: 0.500000;stroke-linecap: round;stroke-linejoin: round;stroke-miterlimit: 10.000000;fill: none;"></path>
  <path d="M67.299118 58.267700C67.299118 57.484940,66.664551 56.850372,65.881790 56.850372C65.099030 56.850372,64.464462 57.484940,64.464462 58.267700C64.464462 59.050461,65.099030 59.685028,65.881790 59.685028C66.664551 59.685028,67.299118 59.050461,67.299118 58.267700Z" style="stroke:rgb(0.000000%,0.000000%,0.000000%); stroke-width: 0.500000;stroke-linecap: round;stroke-linejoin: round;stroke-miterlimit: 10.000000;fill: none;"></path>
  <path d="M72.968399 58.267700C72.968399 57.484940,72.333832 56.850372,71.551071 56.850372C70.768311 56.850372,70.133743 57.484940,70.133743 58.267700C70.133743 59.050461,70.768311 59.685028,71.551071 59.685028C72.333832 59.685028,72.968399 59.050461,72.968399 58.267700Z" style="stroke:rgb(0.000000%,0.000000%,0.000000%); stroke-width: 0.500000;stroke-linecap: round;stroke-linejoin: round;stroke-miterlimit: 10.000000;fill: none;"></path>
  <path d="M55.960556 63.228317C55.960556 62.445557,55.325989 61.810989,54.543228 61.810989C53.760468 61.810989,53.125900 62.445557,53.125900 63.228317C53.125900 64.011078,53.760468 64.645645,54.543228 64.645645C55.325989 64.645645,55.960556 64.011078,55.960556 63.228317Z" style="stroke:rgb(0.000000%,0.000000%,0.000000%); stroke-width: 0.500000;stroke-linecap: round;stroke-linejoin: round;stroke-miterlimit: 10.000000;fill: none;"></path>
  <path d="M61.629837 63.228317C61.629837 62.445557,60.995270 61.810989,60.212509 61.810989C59.429749 61.810989,58.795181 62.445557,58.795181 63.228317C58.795181 64.011078,59.429749 64.645645,60.212509 64.645645C60.995270 64.645645,61.629837 64.011078,61.629837 63.228317Z" style="stroke:rgb(0.000000%,0.000000%,0.000000%); stroke-width: 0.500000;stroke-linecap: round;stroke-linejoin: round;stroke-miterlimit: 10.000000;fill: none;"></path>
  <path d="M67.299118 63.228317C67.299118 62.445557,66.664551 61.810989,65.881790 61.810989C65.099030 61.810989,64.464462 62.445557,64.464462 63.228317C64.464462 64.011078,65.099030 64.645645,65.881790 64.645645C66.664551 64.645645,67.299118 64.011078,67.299118 63.228317Z" style="stroke:rgb(0.000000%,0.000000%,0.000000%); stroke-width: 0.500000;stroke-linecap: round;stroke-linejoin: round;stroke-miterlimit: 10.000000;fill: none;"></path>
  <path d="M72.968399 63.228317C72.968399 62.445557,72.333832 61.810989,71.551071 61.810989C70.768311 61.810989,70.133743 62.445557,70.133743 63.228317C70.133743 64.011078,70.768311 64.645645,71.551071 64.645645C72.333832 64.645645,72.968399 64.011078,72.968399 63.228317Z" style="stroke:rgb(0.000000%,0.000000%,0.000000%); stroke-width: 0.500000;stroke-linecap: round;stroke-linejoin: round;stroke-miterlimit: 10.000000;fill: none;"></path>
  <path d="M51.708588 45.511810L74.385712 45.511810L74.385712 66.062958L51.708588 66.062958Z" style="stroke:rgb(0.000000%,0.000000%,0.000000%); stroke-width: 0.500000;stroke-linecap: round;stroke-linejoin: round;stroke-miterlimit: 10.000000;fill: none;"></path>
  <path d="M-0.732254 39.842438L112.653549 39.842438L112.653549 0.157562L-0.732254 0.157562Z" style="stroke:rgb(0.000000%,0.000000%,0.000000%); stroke-width: 0.500000;stroke-linecap: round;stroke-linejoin: round;stroke-miterlimit: 10.000000;fill: none;"></path>
  <g transform="translate(47.452744 17.098129)" style="fill: rgb(0.000000%,0.000000%,0.000000%);">
    <use xlink:href="#GLYPHcmss8_65"></use>
    <use xlink:href="#GLYPHcmss8_114" x="5.666842"></use>
    <use xlink:href="#GLYPHcmss8_100" x="8.569698"></use>
    <use xlink:href="#GLYPHcmss8_117" x="12.958706"></use>
    <use xlink:href="#GLYPHcmss8_105" x="17.347713"></use>
    <use xlink:href="#GLYPHcmss8_110" x="19.375553"></use>
    <use xlink:href="#GLYPHcmss8_111" x="23.764560"></use>
  </g>
  <g transform="translate(78.185150 17.098129)" style="fill: rgb(0.000000%,0.000000%,0.000000%);">
    <use xlink:href="#GLYPHcmss8_77"></use>
    <use xlink:href="#GLYPHcmss8_105" x="7.416875"></use>
    <use xlink:href="#GLYPHcmss8_99" x="9.444715"></use>
    <use xlink:href="#GLYPHcmss8_114" x="13.222605"></use>
    <use xlink:href="#GLYPHcmss8_111" x="16.125462"></use>
  </g>
  <path d="M21.636765 16.323242L27.614334 16.323242L27.614334 12.338196L21.636765 12.338196Z" style="stroke:rgb(0.000000%,0.000000%,0.000000%); stroke-width: 0.099625;stroke-linecap: round;stroke-linejoin: round;stroke-miterlimit: 10.000000;fill: none;"></path>
  <path d="M21.636765 12.338196L27.614334 16.323242" style="stroke:rgb(0.000000%,0.000000%,0.000000%); stroke-width: 0.697388;stroke-linecap: round;stroke-linejoin: round;stroke-miterlimit: 10.000000;fill: none;"></path>
  <path d="M21.636765 16.323242L27.614334 12.338196" style="stroke:rgb(0.000000%,0.000000%,0.000000%); stroke-width: 0.697388;stroke-linecap: round;stroke-linejoin: round;stroke-miterlimit: 10.000000;fill: none;"></path>
  <g transform="matrix(0.399994,-0.000000,-0.000000,0.399994,22.649582 20.840042)" style="fill: rgb(0.000000%,0.000000%,0.000000%);">
    <use xlink:href="#GLYPHcmss8_66"></use>
    <use xlink:href="#GLYPHcmss8_48" x="5.666842"></use>
  </g>
  <path d="M21.636749 21.725616L27.614319 21.725616L27.614319 17.740570L21.636749 17.740570Z" style="stroke:rgb(0.000000%,0.000000%,0.000000%); stroke-width: 0.099625;stroke-linecap: round;stroke-linejoin: round;stroke-miterlimit: 10.000000;fill: none;"></path>
  <g transform="matrix(0.399994,-0.000000,-0.000000,0.399994,15.160583 15.437668)" style="fill: rgb(0.000000%,0.000000%,0.000000%);">
    <use xlink:href="#GLYPHcmss8_68"></use>
    <use xlink:href="#GLYPHcmss8_53" x="6.139072"></use>
  </g>
  <path d="M14.241867 16.323242L20.219437 16.323242L20.219437 12.338196L14.241867 12.338196Z" style="stroke:rgb(0.000000%,0.000000%,0.000000%); stroke-width: 0.099625;stroke-linecap: round;stroke-linejoin: round;stroke-miterlimit: 10.000000;fill: none;"></path>
  <g transform="matrix(0.399994,-0.000000,-0.000000,0.399994,15.301727 20.840042)" style="fill: rgb(0.000000%,0.000000%,0.000000%);">
    <use xlink:href="#GLYPHcmss8_67"></use>
    <use xlink:href="#GLYPHcmss8_55" x="5.430711"></use>
  </g>
  <path d="M14.241852 21.725616L20.219421 21.725616L20.219421 17.740570L14.241852 17.740570Z" style="stroke:rgb(0.000000%,0.000000%,0.000000%); stroke-width: 0.099625;stroke-linecap: round;stroke-linejoin: round;stroke-miterlimit: 10.000000;fill: none;"></path>
  <g transform="matrix(0.399994,-0.000000,-0.000000,0.399994,98.912674 36.842438)" style="fill: rgb(0.000000%,0.000000%,0.000000%);">
    <use xlink:href="#GLYPHcmss8_49"></use>
    <use xlink:href="#GLYPHcmss8_49" x="4.250120"></use>
  </g>
  <g transform="matrix(0.399994,-0.000000,-0.000000,0.399994,105.886505 36.842438)" style="fill: rgb(0.000000%,0.000000%,0.000000%);">
    <use xlink:href="#GLYPHcmss8_49"></use>
    <use xlink:href="#GLYPHcmss8_50" x="4.250120"></use>
  </g>
  <g transform="matrix(0.399994,-0.000000,-0.000000,0.399994,98.630371 32.445465)" style="fill: rgb(0.000000%,0.000000%,0.000000%);">
    <use xlink:href="#GLYPHcmss8_66"></use>
    <use xlink:href="#GLYPHcmss8_55" x="5.666842"></use>
  </g>
  <path d="M98.617538 33.331039L102.595108 33.331039C103.147400 33.331039,103.595108 32.883331,103.595108 32.331039L103.595108 30.345993C103.595108 29.793701,103.147400 29.345993,102.595108 29.345993L98.617538 29.345993C98.065247 29.345993,97.617538 29.793701,97.617538 30.345993L97.617538 32.331039C97.617538 32.883331,98.065247 33.331039,98.617538 33.331039Z" style="stroke:rgb(0.000000%,0.000000%,0.000000%); stroke-width: 0.099625;stroke-linecap: round;stroke-linejoin: round;stroke-miterlimit: 10.000000;fill: none;"></path>
  <g transform="matrix(0.399994,-0.000000,-0.000000,0.399994,91.826065 36.842438)" style="fill: rgb(0.000000%,0.000000%,0.000000%);">
    <use xlink:href="#GLYPHcmss8_49"></use>
    <use xlink:href="#GLYPHcmss8_48" x="4.250120"></use>
  </g>
  <g transform="matrix(0.399994,-0.000000,-0.000000,0.399994,91.543762 32.445465)" style="fill: rgb(0.000000%,0.000000%,0.000000%);">
    <use xlink:href="#GLYPHcmss8_66"></use>
    <use xlink:href="#GLYPHcmss8_54" x="5.666842"></use>
  </g>
  <path d="M91.530930 33.331039L95.508499 33.331039C96.060791 33.331039,96.508499 32.883331,96.508499 32.331039L96.508499 30.345993C96.508499 29.793701,96.060791 29.345993,95.508499 29.345993L91.530930 29.345993C90.978638 29.345993,90.530930 29.793701,90.530930 30.345993L90.530930 32.331039C90.530930 32.883331,90.978638 33.331039,91.530930 33.331039Z" style="stroke:rgb(0.000000%,0.000000%,0.000000%); stroke-width: 0.099625;stroke-linecap: round;stroke-linejoin: round;stroke-miterlimit: 10.000000;fill: none;"></path>
  <g transform="matrix(0.399994,-0.000000,-0.000000,0.399994,85.586258 36.842438)" style="fill: rgb(0.000000%,0.000000%,0.000000%);">
    <use xlink:href="#GLYPHcmss8_57"></use>
  </g>
  <g transform="matrix(0.399994,-0.000000,-0.000000,0.399994,84.457153 32.445465)" style="fill: rgb(0.000000%,0.000000%,0.000000%);">
    <use xlink:href="#GLYPHcmss8_66"></use>
    <use xlink:href="#GLYPHcmss8_53" x="5.666842"></use>
  </g>
  <path d="M84.444321 33.331039L88.421890 33.331039C88.974182 33.331039,89.421890 32.883331,89.421890 32.331039L89.421890 30.345993C89.421890 29.793701,88.974182 29.345993,88.421890 29.345993L84.444321 29.345993C83.892029 29.345993,83.444321 29.793701,83.444321 30.345993L83.444321 32.331039C83.444321 32.883331,83.892029 33.331039,84.444321 33.331039Z" style="stroke:rgb(0.000000%,0.000000%,0.000000%); stroke-width: 0.099625;stroke-linecap: round;stroke-linejoin: round;stroke-miterlimit: 10.000000;fill: none;"></path>
  <g transform="matrix(0.399994,-0.000000,-0.000000,0.399994,78.499649 36.842438)" style="fill: rgb(0.000000%,0.000000%,0.000000%);">
    <use xlink:href="#GLYPHcmss8_56"></use>
  </g>
  <g transform="matrix(0.399994,-0.000000,-0.000000,0.399994,77.370544 32.445465)" style="fill: rgb(0.000000%,0.000000%,0.000000%);">
    <use xlink:href="#GLYPHcmss8_66"></use>
    <use xlink:href="#GLYPHcmss8_52" x="5.666842"></use>
  </g>
  <path d="M77.357712 33.331039L81.335281 33.331039C81.887573 33.331039,82.335281 32.883331,82.335281 32.331039L82.335281 30.345993C82.335281 29.793701,81.887573 29.345993,81.335281 29.345993L77.357712 29.345993C76.805420 29.345993,76.357712 29.793701,76.357712 30.345993L76.357712 32.331039C76.357712 32.883331,76.805420 33.331039,77.357712 33.331039Z" style="stroke:rgb(0.000000%,0.000000%,0.000000%); stroke-width: 0.099625;stroke-linecap: round;stroke-linejoin: round;stroke-miterlimit: 10.000000;fill: none;"></path>
  <g transform="matrix(0.399994,-0.000000,-0.000000,0.399994,0.088303 36.842438)" style="fill: rgb(0.000000%,0.000000%,0.000000%);">
    <use xlink:href="#GLYPHcmss8_77"></use>
    <use xlink:href="#GLYPHcmss8_79" x="7.416875"></use>
    <use xlink:href="#GLYPHcmss8_83" x="13.694850"></use>
    <use xlink:href="#GLYPHcmss8_73" x="18.417216"></use>
  </g>
  <g transform="matrix(0.399994,-0.000000,-0.000000,0.399994,2.252411 32.445465)" style="fill: rgb(0.000000%,0.000000%,0.000000%);">
    <use xlink:href="#GLYPHcmss8_66"></use>
    <use xlink:href="#GLYPHcmss8_50" x="5.666842"></use>
  </g>
  <path d="M2.239578 33.331039L6.217148 33.331039C6.769440 33.331039,7.217148 32.883331,7.217148 32.331039L7.217148 30.345993C7.217148 29.793701,6.769440 29.345993,6.217148 29.345993L2.239578 29.345993C1.687286 29.345993,1.239578 29.793701,1.239578 30.345993L1.239578 32.331039C1.239578 32.883331,1.687286 33.331039,2.239578 33.331039Z" style="stroke:rgb(0.000000%,0.000000%,0.000000%); stroke-width: 0.099625;stroke-linecap: round;stroke-linejoin: round;stroke-miterlimit: 10.000000;fill: none;"></path>
  <g transform="matrix(0.399994,-0.000000,-0.000000,0.399994,16.115662 36.842438)" style="fill: rgb(0.000000%,0.000000%,0.000000%);">
    <use xlink:href="#GLYPHcmss8_84"></use>
    <use xlink:href="#GLYPHcmss8_88" x="5.805745"></use>
  </g>
  <g transform="matrix(0.399994,-0.000000,-0.000000,0.399994,16.331512 32.445465)" style="fill: rgb(0.000000%,0.000000%,0.000000%);">
    <use xlink:href="#GLYPHcmss8_68"></use>
    <use xlink:href="#GLYPHcmss8_51" x="6.139072"></use>
  </g>
  <path d="M16.412781 33.331039L20.390350 33.331039C20.942642 33.331039,21.390350 32.883331,21.390350 32.331039L21.390350 30.345993C21.390350 29.793701,20.942642 29.345993,20.390350 29.345993L16.412781 29.345993C15.860489 29.345993,15.412781 29.793701,15.412781 30.345993L15.412781 32.331039C15.412781 32.883331,15.860489 33.331039,16.412781 33.331039Z" style="stroke:rgb(0.000000%,0.000000%,0.000000%); stroke-width: 0.099625;stroke-linecap: round;stroke-linejoin: round;stroke-miterlimit: 10.000000;fill: none;"></path>
  <g transform="matrix(0.399994,-0.000000,-0.000000,0.399994,23.263168 36.842438)" style="fill: rgb(0.000000%,0.000000%,0.000000%);">
    <use xlink:href="#GLYPHcmss8_82"></use>
    <use xlink:href="#GLYPHcmss8_88" x="5.500155"></use>
  </g>
  <g transform="matrix(0.399994,-0.000000,-0.000000,0.399994,23.418121 32.445465)" style="fill: rgb(0.000000%,0.000000%,0.000000%);">
    <use xlink:href="#GLYPHcmss8_68"></use>
    <use xlink:href="#GLYPHcmss8_50" x="6.139072"></use>
  </g>
  <path d="M23.499390 33.331039L27.476959 33.331039C28.029251 33.331039,28.476959 32.883331,28.476959 32.331039L28.476959 30.345993C28.476959 29.793701,28.029251 29.345993,27.476959 29.345993L23.499390 29.345993C22.947098 29.345993,22.499390 29.793701,22.499390 30.345993L22.499390 32.331039C22.499390 32.883331,22.947098 33.331039,23.499390 33.331039Z" style="stroke:rgb(0.000000%,0.000000%,0.000000%); stroke-width: 0.099625;stroke-linecap: round;stroke-linejoin: round;stroke-miterlimit: 10.000000;fill: none;"></path>
  <g transform="matrix(0.399994,-0.000000,-0.000000,0.399994,45.901138 36.842438)" style="fill: rgb(0.000000%,0.000000%,0.000000%);">
    <use xlink:href="#GLYPHcmss8_50"></use>
  </g>
  <g transform="matrix(0.399994,-0.000000,-0.000000,0.399994,44.677933 32.445465)" style="fill: rgb(0.000000%,0.000000%,0.000000%);">
    <use xlink:href="#GLYPHcmss8_68"></use>
    <use xlink:href="#GLYPHcmss8_49" x="6.139072"></use>
  </g>
  <path d="M44.759201 33.331039L48.736771 33.331039C49.289062 33.331039,49.736771 32.883331,49.736771 32.331039L49.736771 30.345993C49.736771 29.793701,49.289062 29.345993,48.736771 29.345993L44.759201 29.345993C44.206909 29.345993,43.759201 29.793701,43.759201 30.345993L43.759201 32.331039C43.759201 32.883331,44.206909 33.331039,44.759201 33.331039Z" style="stroke:rgb(0.000000%,0.000000%,0.000000%); stroke-width: 0.099625;stroke-linecap: round;stroke-linejoin: round;stroke-miterlimit: 10.000000;fill: none;"></path>
  <g transform="matrix(0.399994,-0.000000,-0.000000,0.399994,1.029205 5.371460)" style="fill: rgb(0.000000%,0.000000%,0.000000%);">
    <use xlink:href="#GLYPHcmss8_83"></use>
    <use xlink:href="#GLYPHcmss8_67" x="4.722365"></use>
    <use xlink:href="#GLYPHcmss8_75" x="10.153076"></use>
  </g>
  <g transform="matrix(0.399994,-0.000000,-0.000000,0.399994,7.174911 5.371460)" style="fill: rgb(0.000000%,0.000000%,0.000000%);">
    <use xlink:href="#GLYPHcmss8_77"></use>
    <use xlink:href="#GLYPHcmss8_73" x="7.416875"></use>
    <use xlink:href="#GLYPHcmss8_83" x="9.778058"></use>
    <use xlink:href="#GLYPHcmss8_79" x="14.500424"></use>
  </g>
  <g transform="matrix(0.399994,-0.000000,-0.000000,0.399994,21.940323 5.371460)" style="fill: rgb(0.000000%,0.000000%,0.000000%);">
    <use xlink:href="#GLYPHcmss8_71"></use>
    <use xlink:href="#GLYPHcmss8_78" x="5.666842"></use>
    <use xlink:href="#GLYPHcmss8_68" x="11.667010"></use>
  </g>
  <g transform="matrix(0.399994,-0.000000,-0.000000,0.399994,29.381180 5.371460)" style="fill: rgb(0.000000%,0.000000%,0.000000%);">
    <use xlink:href="#GLYPHcmss8_82"></use>
    <use xlink:href="#GLYPHcmss8_83" x="5.500155"></use>
    <use xlink:href="#GLYPHcmss8_84" x="10.222520"></use>
  </g>
  <path d="M53.125900 66.062958L53.125900 68.897598L46.747986 68.897598L46.747986 39.842438" style="stroke:rgb(0.000000%,0.000000%,0.000000%); stroke-width: 0.500000;stroke-linecap: round;stroke-linejoin: round;stroke-miterlimit: 10.000000;fill: none;"></path>
  <path d="M55.960556 66.062958L55.960556 71.732239L25.488174 71.732239L25.488174 39.842438" style="stroke:rgb(0.000000%,0.000000%,0.000000%); stroke-width: 0.500000;stroke-linecap: round;stroke-linejoin: round;stroke-miterlimit: 10.000000;fill: none;"></path>
  <path d="M58.795197 66.062958L58.795197 74.566879L18.401566 74.566879L18.401566 39.842438" style="stroke:rgb(0.000000%,0.000000%,0.000000%); stroke-width: 0.500000;stroke-linecap: round;stroke-linejoin: round;stroke-miterlimit: 10.000000;fill: none;"></path>
  <path d="M61.629837 66.062958L61.629837 77.401520L4.228363 77.401520L4.228363 39.842438" style="stroke:rgb(0.000000%,0.000000%,0.000000%); stroke-width: 0.500000;stroke-linecap: round;stroke-linejoin: round;stroke-miterlimit: 10.000000;fill: none;"></path>
  <path d="M72.968399 66.062958L72.968399 68.897598L79.346497 68.897598L79.346497 39.842438" style="stroke:rgb(0.000000%,0.000000%,0.000000%); stroke-width: 0.500000;stroke-linecap: round;stroke-linejoin: round;stroke-miterlimit: 10.000000;fill: none;"></path>
  <path d="M70.133759 66.062958L70.133759 71.732239L86.433105 71.732239L86.433105 39.842438" style="stroke:rgb(0.000000%,0.000000%,0.000000%); stroke-width: 0.500000;stroke-linecap: round;stroke-linejoin: round;stroke-miterlimit: 10.000000;fill: none;"></path>
  <path d="M67.299118 66.062958L67.299118 74.566879L93.519714 74.566879L93.519714 39.842438" style="stroke:rgb(0.000000%,0.000000%,0.000000%); stroke-width: 0.500000;stroke-linecap: round;stroke-linejoin: round;stroke-miterlimit: 10.000000;fill: none;"></path>
  <path d="M64.464478 66.062958L64.464478 77.401520L100.606323 77.401520L100.606323 39.842438" style="stroke:rgb(0.000000%,0.000000%,0.000000%); stroke-width: 0.500000;stroke-linecap: round;stroke-linejoin: round;stroke-miterlimit: 10.000000;fill: none;"></path>
</svg>
